<svg id="2e5330bd-2bf6-4577-8817-9e6f69f5f732" data-name="Layer 1" xmlns="http://www.w3.org/2000/svg" width="42.09mm" height="49.33mm" viewBox="0 0 119.31 139.84"><title>caneta</title><g id="67e4c2eb-e4cf-4713-ad7b-647f5d551ef1" data-name="&lt;Group&gt;"><rect id="b0e14d45-9bcc-4102-ae10-5fb58504ec2c" data-name="&lt;Rectangle&gt;" x="438.01" y="405.17" width="23.14" height="129.2" transform="translate(-583.28 1.44) rotate(-39.89)" fill="#ffc13a" stroke="#333331" stroke-linecap="round" stroke-linejoin="round" stroke-width="2"/><path id="9e789e5a-747c-48ac-84ed-3551ef119cb9" data-name="&lt;Rectangle&gt;" d="M397,397h5.5a4.28,4.28,0,0,1,4.28,4.28v22a0,0,0,0,1,0,0H392.69a0,0,0,0,1,0,0v-22A4.28,4.28,0,0,1,397,397Z" transform="translate(-556.63 -44.43) rotate(-39.89)" fill="#ffc13a" stroke="#333331" stroke-linecap="round" stroke-linejoin="round" stroke-width="2"/><path id="b0292228-3166-486a-81c7-5cd91b938ed8" data-name="&lt;Path&gt;" d="M482.14,526.75l16.28,7.89a4.54,4.54,0,0,0,6.35-5.31l-4.88-17.42Z" transform="translate(-386.63 -396.26)" fill="#ffc13a" stroke="#333331" stroke-linecap="round" stroke-linejoin="round" stroke-width="2"/><rect id="ffe24e14-5e03-459b-8598-28250130671b" data-name="&lt;Rectangle&gt;" x="469.58" y="492.13" width="23.14" height="30.78" transform="translate(-600.15 30.47) rotate(-39.89)" fill="#fff" stroke="#333331" stroke-linecap="round" stroke-linejoin="round" stroke-width="2"/><polyline id="975028e6-b498-43cc-9d15-9508574b5cbb" data-name="&lt;Path&gt;" points="20.43 40.69 47.06 18.43 83.4 61.89" fill="none" stroke="#333331" stroke-linecap="round" stroke-linejoin="round" stroke-width="2"/></g></svg>