<svg xmlns="http://www.w3.org/2000/svg" width="20.64mm" height="23.88mm" viewBox="0 0 58.51 67.68"><title>clamp</title><g id="b6a8cc8b-e503-4bcc-b4e7-b4ed4d294b9f" data-name="Ñëîé 1"><path d="M231.58,372.51h51.93a2.3,2.3,0,0,1,2.29,2.29v25.13a2.3,2.3,0,0,1-2.29,2.29H271.59l-.47-2.61h-3.2l-2.22,2.61h-16.3l-2.22-2.61H244l-.48,2.61H231.58a2.3,2.3,0,0,1-2.29-2.29V374.8A2.3,2.3,0,0,1,231.58,372.51Z" transform="translate(-228.01 -334.54)" fill="#ffc13a" fill-rule="evenodd"/><path d="M231.3,369.56h16.5l2.08-11.38c.43-2.34.51-4.14-1-6.13l-3.1-4.14c-1.78-2.37-2.28-4.28-.56-6.89a14.42,14.42,0,0,1,24.08,0c1.71,2.62,1.21,4.53-.56,6.89l-3.1,4.14c-1.49,2-1.41,3.79-1,6.13l2.08,11.38h16.5a3.3,3.3,0,0,1,3.29,3.29V398a3.3,3.3,0,0,1-3.29,3.29H271.32a1,1,0,0,1-1-.82l-.33-1.79H268.1l-1.86,2.18a1,1,0,0,1-.82.43H249.11a1,1,0,0,1-.82-.43l-1.86-2.18h-1.92l-.33,1.79a1,1,0,0,1-1,.82H231.3A3.3,3.3,0,0,1,228,398V372.85a3.3,3.3,0,0,1,3.29-3.29ZM243,396H230v2a1.3,1.3,0,0,0,1.29,1.29h11.08L243,396Zm3.91-53.84c-1.23,1.87-.77,2.93.49,4.6l3.1,4.14c1.87,2.49,1.88,4.8,1.34,7.74l-2,11H264.7l-2-11c-.54-2.94-.53-5.24,1.34-7.74l3.1-4.14c1.25-1.67,1.71-2.73.49-4.6a12.42,12.42,0,0,0-20.74,0Zm2.56,29.44-4.58,25.1h24.77l-4.58-25.1Zm-.42,27.1.52.61H265l.52-.61ZM271.18,394h13.34v-21.1a1.3,1.3,0,0,0-1.29-1.29H267.09L271.18,394Zm.36,2,.61,3.32h11.08a1.3,1.3,0,0,0,1.29-1.29v-2Zm-28.2-2,4.09-22.39H231.3a1.3,1.3,0,0,0-1.29,1.29V394Z" transform="translate(-228.01 -334.54)" fill="#2b2a29" fill-rule="evenodd"/></g></svg>