<svg id="94fe4ea4-4e14-47cf-bc30-eb52ddba14b5" data-name="Layer 1" xmlns="http://www.w3.org/2000/svg" width="104.88mm" height="392.03mm" viewBox="0 0 297.31 1111.26"><title>desk-r</title><g id="e86eb421-14cb-4774-bb75-58775e8c479d" data-name="&lt;Group&gt;"><rect id="9a6ac314-b2c3-4752-8a33-8cea8ed0815b" data-name="&lt;Rectangle&gt;" x="180.12" y="90.1" width="186.82" height="255.63" transform="translate(-97.14 -127.14) rotate(12.94)" fill="#fff" stroke="#333331" stroke-linecap="round" stroke-linejoin="round" stroke-width="2"/><g id="c8595ae1-2315-44c6-a137-09ed57984088" data-name="&lt;Group&gt;"><rect id="c7ec377e-33a1-42ee-9fe0-18802aafefab" data-name="&lt;Rectangle&gt;" x="235.58" y="128.14" width="39.68" height="39.68" transform="translate(-113.26 -124.86) rotate(12.94)" fill="#fff" stroke="#333331" stroke-linecap="round" stroke-linejoin="round" stroke-width="2"/><g id="00e0cee3-503f-46f4-81d7-3d8bef394faf" data-name="&lt;Group&gt;"><line id="0c4124d0-fda4-4a9c-836a-ee5d216e7a72" data-name="&lt;Path&gt;" x1="71.79" y1="123.38" x2="175.05" y2="147.1" fill="none" stroke="#333331" stroke-linecap="round" stroke-linejoin="round" stroke-width="2"/><line id="95a2b3c7-802a-442e-88fe-584733beb950" data-name="&lt;Path&gt;" x1="66.45" y1="146.66" x2="169.7" y2="170.38" fill="none" stroke="#333331" stroke-linecap="round" stroke-linejoin="round" stroke-width="2"/><line id="283b90b9-5214-4925-8712-48816a14bd8e" data-name="&lt;Path&gt;" x1="61.1" y1="169.93" x2="164.36" y2="193.65" fill="none" stroke="#333331" stroke-linecap="round" stroke-linejoin="round" stroke-width="2"/><line id="38e4a765-3784-4ae9-8976-582b9eeb34ee" data-name="&lt;Path&gt;" x1="55.75" y1="193.21" x2="159.01" y2="216.93" fill="none" stroke="#333331" stroke-linecap="round" stroke-linejoin="round" stroke-width="2"/><line id="11a3f20d-506c-4a1a-8516-bc4b988df76f" data-name="&lt;Path&gt;" x1="50.41" y1="216.48" x2="153.66" y2="240.2" fill="none" stroke="#333331" stroke-linecap="round" stroke-linejoin="round" stroke-width="2"/></g></g></g><g id="9b13024d-1998-45f3-9cd5-94267ea5f8ee" data-name="&lt;Group&gt;"><circle id="022d99c6-da52-404c-bdd6-ce87aeb25635" data-name="&lt;Path&gt;" cx="227.84" cy="482.22" r="69.25" transform="translate(-367.21 112.58) rotate(-30.71)" fill="#fff" stroke="#333331" stroke-linecap="round" stroke-linejoin="round" stroke-width="2"/><path id="ccbfdd86-c893-4241-b250-2364ec5fec57" data-name="&lt;Path&gt;" d="M287.8,438.23l-21.06,12.51a50,50,0,1,0,7.35,12.37l21.06-12.51a7.19,7.19,0,1,0-7.35-12.37Z" transform="translate(-152.88 -71.43)" fill="#fff" stroke="#333331" stroke-linecap="round" stroke-linejoin="round" stroke-width="2"/><circle id="3fcbf8e3-69a3-4478-b350-33f9a3e8ec66" data-name="&lt;Path&gt;" cx="227.84" cy="482.22" r="39.69" transform="translate(-367.21 112.58) rotate(-30.71)" fill="#ffc13a" stroke="#333331" stroke-linecap="round" stroke-linejoin="round" stroke-width="2"/><path id="3ab5c5df-05aa-4999-8d3d-05190597cd13" data-name="&lt;Path&gt;" d="M235.6,445.73A37.3,37.3,0,0,0,217.2,518a42.09,42.09,0,0,1,18.4-72.24Z" transform="translate(-152.88 -71.43)" fill="#fff"/></g><g id="df84adf6-6cca-448b-9202-dc800e981c7a" data-name="&lt;Group&gt;"><rect id="c1bce6c9-e97d-4241-9935-2bfaacf00949" data-name="&lt;Rectangle&gt;" x="181.68" y="633.34" width="157.78" height="190.69" rx="9.5" ry="9.5" transform="translate(-364.53 44.16) rotate(-17.93)" fill="#fff" stroke="#333331" stroke-linecap="round" stroke-linejoin="round" stroke-width="2"/><rect id="188992b3-c754-4bbd-857a-cc946bbe0197" data-name="&lt;Rectangle&gt;" x="184.11" y="659.13" width="117.47" height="30.78" transform="translate(-348.72 36.08) rotate(-17.93)" fill="#fff" stroke="#333331" stroke-linecap="round" stroke-linejoin="round" stroke-width="2"/><rect id="9b068773-ecd6-4320-9e7e-3b6c91defa02" data-name="&lt;Path&gt;" x="199.08" y="668.2" width="99.92" height="16.39" transform="translate(-349 38.07) rotate(-17.93)" fill="#ffc13a"/><rect id="d68b9468-e038-48a2-9272-79bc8c15e7cc" data-name="&lt;Rectangle&gt;" x="197.87" y="718.69" width="28.41" height="10.75" transform="translate(-365.47 29.01) rotate(-17.93)" fill="#ffc13a" stroke="#333331" stroke-linecap="round" stroke-linejoin="round" stroke-width="2"/><rect id="ae7ee3dc-f0a9-4e8e-9032-175f3cda4ea9" data-name="&lt;Rectangle&gt;" x="240.24" y="704.98" width="28.41" height="10.75" transform="translate(-359.19 41.39) rotate(-17.93)" fill="#ffc13a" stroke="#333331" stroke-linecap="round" stroke-linejoin="round" stroke-width="2"/><rect id="67cec58e-2125-4ad2-81be-87f2b2835794" data-name="&lt;Rectangle&gt;" x="282.61" y="691.27" width="28.41" height="10.75" transform="translate(-352.91 53.76) rotate(-17.93)" fill="#ffc13a" stroke="#333331" stroke-linecap="round" stroke-linejoin="round" stroke-width="2"/><rect id="34bcc5d2-34bc-44ae-9419-d33f2f036740" data-name="&lt;Rectangle&gt;" x="208.52" y="749.64" width="28.41" height="14.73" transform="translate(-375.09 33.89) rotate(-17.93)" fill="#fff" stroke="#333331" stroke-linecap="round" stroke-linejoin="round" stroke-width="2"/><rect id="d2fdd340-9dc0-43f7-b31e-155d2e126302" data-name="&lt;Rectangle&gt;" x="250.89" y="735.93" width="28.41" height="14.73" transform="translate(-368.81 46.27) rotate(-17.93)" fill="#fff" stroke="#333331" stroke-linecap="round" stroke-linejoin="round" stroke-width="2"/><rect id="d676e1ba-b393-4746-a687-439cee29d5ab" data-name="&lt;Rectangle&gt;" x="293.26" y="722.22" width="28.41" height="14.73" transform="translate(-362.53 58.64) rotate(-17.93)" fill="#ffc13a" stroke="#333331" stroke-linecap="round" stroke-linejoin="round" stroke-width="2"/><rect id="50b9e90a-0f3a-4998-8395-a47418dbba2b" data-name="&lt;Rectangle&gt;" x="216.66" y="774.77" width="28.41" height="14.73" transform="translate(-382.43 37.61) rotate(-17.93)" fill="#fff" stroke="#333331" stroke-linecap="round" stroke-linejoin="round" stroke-width="2"/><rect id="3bdfaaf1-9bd9-452d-917c-7cc78e772d0a" data-name="&lt;Rectangle&gt;" x="259.03" y="761.07" width="28.41" height="14.73" transform="translate(-376.15 49.99) rotate(-17.93)" fill="#fff" stroke="#333331" stroke-linecap="round" stroke-linejoin="round" stroke-width="2"/><rect id="97c229ec-dd84-42a6-a007-899bcd96e053" data-name="&lt;Rectangle&gt;" x="301.4" y="747.36" width="28.41" height="14.73" transform="translate(-369.88 62.37) rotate(-17.93)" fill="#ffc13a" stroke="#333331" stroke-linecap="round" stroke-linejoin="round" stroke-width="2"/><rect id="d4b4a57f-3e0f-4a14-9c45-79dc04131d2d" data-name="&lt;Rectangle&gt;" x="224.79" y="799.91" width="28.41" height="14.73" transform="translate(-389.77 41.34) rotate(-17.93)" fill="#fff" stroke="#333331" stroke-linecap="round" stroke-linejoin="round" stroke-width="2"/><rect id="0d78d718-84ff-4e1b-809e-b3f79e6095c4" data-name="&lt;Rectangle&gt;" x="267.16" y="786.2" width="28.41" height="14.73" transform="translate(-383.5 53.71) rotate(-17.93)" fill="#fff" stroke="#333331" stroke-linecap="round" stroke-linejoin="round" stroke-width="2"/><rect id="f17e5272-7f31-47cf-9a7e-17680f37783d" data-name="&lt;Rectangle&gt;" x="309.53" y="772.49" width="28.41" height="14.73" transform="translate(-377.22 66.09) rotate(-17.93)" fill="#ffc13a" stroke="#333331" stroke-linecap="round" stroke-linejoin="round" stroke-width="2"/></g><g id="90aac60b-8c93-4ccc-9ccf-9d5716d380fd" data-name="&lt;Group&gt;"><rect id="a3e91391-c5c0-427e-ab63-5b433644c827" data-name="&lt;Rectangle&gt;" x="298.96" y="1091.94" width="23.14" height="129.2" transform="translate(1220.73 533.83) rotate(77.62)" fill="#ffc13a" stroke="#333331" stroke-linecap="round" stroke-linejoin="round" stroke-width="2"/><path id="30f47d21-47c9-4c9e-9604-6feb0893394c" data-name="&lt;Rectangle&gt;" d="M383.73,1126.72h5.5a4.28,4.28,0,0,1,4.28,4.28v22a0,0,0,0,1,0,0H379.45a0,0,0,0,1,0,0v-22A4.28,4.28,0,0,1,383.73,1126.72Z" transform="translate(1264.11 446.56) rotate(77.62)" fill="#ffc13a" stroke="#333331" stroke-linecap="round" stroke-linejoin="round" stroke-width="2"/><path id="4a9b702c-be99-4fe8-bbf8-99911e6641c2" data-name="&lt;Path&gt;" d="M245,1159.09l-14.52,10.79a4.54,4.54,0,0,0,1.77,8.08l17.7,3.72Z" transform="translate(-152.88 -71.43)" fill="#ffc13a" stroke="#333331" stroke-linecap="round" stroke-linejoin="round" stroke-width="2"/><rect id="d670f748-dd68-48b5-8664-823ec0e2d1f4" data-name="&lt;Rectangle&gt;" x="250.9" y="1151.7" width="23.14" height="30.78" transform="translate(1193.27 589.07) rotate(77.62)" fill="#fff" stroke="#333331" stroke-linecap="round" stroke-linejoin="round" stroke-width="2"/><polyline id="ff739993-ba4f-4a81-9574-edca5c69c513" data-name="&lt;Path&gt;" points="206.41 1062.57 213.85 1096.46 158.51 1108.61" fill="none" stroke="#333331" stroke-linecap="round" stroke-linejoin="round" stroke-width="2"/></g><g id="93eb16e7-1b77-4132-a660-a08e14096d03" data-name="&lt;Group&gt;"><path id="d11a5ae0-bcf2-42c9-ba98-96759d898fc2" data-name="&lt;Path&gt;" d="M233.6,999.31l-21.09-6.05a36.47,36.47,0,0,1-25-45.12l4.13-14.39A24.49,24.49,0,0,1,211,916.39l9.4-1.65a69,69,0,0,1,47.83,9l13.35,8.14a24.49,24.49,0,0,1,8.55,33l-8.37,14.74A42,42,0,0,1,233.6,999.31Z" transform="translate(-152.88 -71.43)" fill="#ffc13a" stroke="#333331" stroke-linecap="round" stroke-linejoin="round" stroke-width="2"/><line id="73d8cb44-c66f-436a-a61d-23153bb3a166" data-name="&lt;Path&gt;" x1="38.77" y1="862.32" x2="18.96" y2="856.64" fill="none" stroke="#333331" stroke-linecap="round" stroke-linejoin="round" stroke-width="2"/><path id="1cb70c78-34d9-4427-8efd-79fe4c2e865f" data-name="&lt;Path&gt;" d="M359,1035.31l21.09,6.05a36.47,36.47,0,0,0,45.12-25l4.13-14.39a24.49,24.49,0,0,0-7.17-25l-7.09-6.38a69,69,0,0,0-45.36-17.69l-15.63-.18a24.49,24.49,0,0,0-24.75,23.44l-.72,16.93A42,42,0,0,0,359,1035.31Z" transform="translate(-152.88 -71.43)" fill="#ffc13a" stroke="#333331" stroke-linecap="round" stroke-linejoin="round" stroke-width="2"/><line id="ebebe173-cfdb-4333-958e-1916f02d92ac" data-name="&lt;Path&gt;" x1="276.5" y1="930.53" x2="296.31" y2="936.22" fill="none" stroke="#333331" stroke-linecap="round" stroke-linejoin="round" stroke-width="2"/><path id="57797bce-6c75-4548-8f3a-2e12a48dee3e" data-name="&lt;Path&gt;" d="M293,949.45s26.17-13.51,40,11.48" transform="translate(-152.88 -71.43)" fill="none" stroke="#333331" stroke-linecap="round" stroke-linejoin="round" stroke-width="2"/><g id="43b2ccb5-a7f9-443a-9561-50760c23fade" data-name="&lt;Group&gt;"><path id="a9c4db79-a2a8-4d16-9457-468b4b7aedee" data-name="&lt;Path&gt;" d="M333.7,976.38l-.13,2.93c28.36,3.9,55.23.45,73.84-9.39a64.69,64.69,0,0,0-37.71-12.67l-15.63-.18A20.07,20.07,0,0,0,333.7,976.38Z" transform="translate(-152.88 -71.43)" fill="#fff"/><path id="4fa37004-59d3-49ba-ba07-ff35ed0b4e5f" data-name="&lt;Path&gt;" d="M284.75,965.58l1.58-2.78a20.07,20.07,0,0,0-7-27.17h0l-13.35-8.14a64.66,64.66,0,0,0-40.32-9.11C236.59,936.76,258.09,954,284.75,965.58Z" transform="translate(-152.88 -71.43)" fill="#fff"/></g></g></svg>