<svg id="ff718ca7-fa36-406f-8ed5-fae85936a610" data-name="Layer 1" xmlns="http://www.w3.org/2000/svg" width="166.51mm" height="430.23mm" viewBox="0 0 471.98 1219.55"><title>desk-l</title><g id="df1824eb-2ac3-40cf-a7a6-7f69fc9c49f3" data-name="&lt;Group&gt;"><path id="8faab133-d346-4b4e-aa7e-42276dbfe05f" data-name="&lt;Rectangle&gt;" d="M121.23,140.34H495.88a0,0,0,0,1,0,0V356.06a13.5,13.5,0,0,1-13.5,13.5H134.73a13.5,13.5,0,0,1-13.5-13.5V140.34a0,0,0,0,1,0,0Z" transform="translate(-134.47 157.6) rotate(-27.29)" fill="#fff" stroke="#333331" stroke-linecap="round" stroke-linejoin="round" stroke-width="2"/><polygon id="82047817-e042-4303-aea2-9eae595d26db" data-name="&lt;Path&gt;" points="370.56 54.93 37.62 226.72 5.33 201.69 368.87 14.11 370.56 54.93" fill="#ffc13a" stroke="#333331" stroke-linecap="round" stroke-linejoin="round" stroke-width="2"/><path id="9a898d75-c46f-43a7-935d-5cb6ec7bbf17" data-name="&lt;Rectangle&gt;" d="M44.29,100.89H424.38a14.5,14.5,0,0,1,14.5,14.5v5.91a0,0,0,0,1,0,0H29.79a0,0,0,0,1,0,0V115.4a14.5,14.5,0,0,1,14.5-14.5Z" transform="translate(-76.77 107.55) rotate(-27.29)" fill="#fff" stroke="#333331" stroke-linecap="round" stroke-linejoin="round" stroke-width="2"/><g id="f9c84d05-9ef1-4920-9375-8ccf16d687b8" data-name="&lt;Group&gt;"><polygon id="517073c7-9bd3-444f-a89e-f64c2e69f6f0" data-name="&lt;Path&gt;" points="39.05 211.15 29.75 203.94 356.55 35.3 357.04 47.07 39.05 211.15" fill="#fff" stroke="#333331" stroke-linecap="round" stroke-linejoin="round" stroke-width="2"/><polygon id="ae38411a-70c5-42b6-adb3-25f15f9e6f56" data-name="&lt;Path&gt;" points="39.05 211.15 29.75 203.94 356.55 35.3 357.04 47.07 39.05 211.15" fill="#fff" stroke="#333331" stroke-linecap="round" stroke-linejoin="round" stroke-width="2"/></g><rect id="ef1ba1b0-88d1-44d0-9106-adc13dd6ff2e" data-name="&lt;Rectangle&gt;" x="294.78" y="298.75" width="96.08" height="45.22" transform="translate(-161.11 180.71) rotate(-27.29)" fill="#ffc13a" stroke="#333331" stroke-linecap="round" stroke-linejoin="round" stroke-width="2"/><line id="15be9811-5b3a-4dc0-b571-337560139508" data-name="&lt;Path&gt;" x1="252.11" y1="338.65" x2="280.03" y2="324.24" fill="#fff" stroke="#333331" stroke-linecap="round" stroke-linejoin="round" stroke-width="2"/><line id="4504ad5b-a489-4b4b-a9ef-0d91c572c9b2" data-name="&lt;Path&gt;" x1="309.57" y1="309" x2="337.49" y2="294.59" fill="#fff" stroke="#333331" stroke-linecap="round" stroke-linejoin="round" stroke-width="2"/><rect id="d772e3b0-5421-432f-973e-e711ce62c4ee" data-name="&lt;Rectangle&gt;" x="181.52" y="337.66" width="18.84" height="18.84" transform="translate(-189.81 113.93) rotate(-27.29)" fill="#ffc13a" stroke="#333331" stroke-linecap="round" stroke-linejoin="round" stroke-width="2"/><rect id="150131c7-af6c-4168-8222-4f6e266c8a2b" data-name="&lt;Rectangle&gt;" x="209.99" y="322.97" width="18.84" height="18.84" transform="translate(-179.91 125.35) rotate(-27.29)" fill="#ffc13a" stroke="#333331" stroke-linecap="round" stroke-linejoin="round" stroke-width="2"/><polygon id="8f721cec-10cc-44c7-87f6-01eb235009f7" data-name="&lt;Path&gt;" points="297.11 242.64 183.26 301.39 191.9 318.13 305.75 259.38 322.49 250.75 313.85 234 297.11 242.64" fill="#ffc13a" stroke="#333331" stroke-linecap="round" stroke-linejoin="round" stroke-width="2"/><rect id="b7327b61-562f-422c-b1b9-7e8a22af6e14" data-name="&lt;Rectangle&gt;" x="380.76" y="234.86" width="18.84" height="18.84" transform="translate(-120.49 193.84) rotate(-27.29)" fill="#ffc13a" stroke="#333331" stroke-linecap="round" stroke-linejoin="round" stroke-width="2"/><rect id="de170866-56f8-4c62-9045-73779f5e9d2c" data-name="&lt;Rectangle&gt;" x="409.22" y="220.17" width="18.84" height="18.84" transform="translate(-110.58 205.26) rotate(-27.29)" fill="#ffc13a" stroke="#333331" stroke-linecap="round" stroke-linejoin="round" stroke-width="2"/><polygon id="210215c5-9678-49ec-af0f-0d78000d5bed" data-name="&lt;Path&gt;" points="141.55 290.4 113.09 305.09 121.73 321.83 150.19 307.14 166.94 298.51 158.3 281.76 141.55 290.4" fill="#ffc13a" stroke="#333331" stroke-linecap="round" stroke-linejoin="round" stroke-width="2"/><rect id="07b086c1-2e9c-4894-87a7-cc91fc52cc80" data-name="&lt;Rectangle&gt;" x="225.2" y="282.62" width="18.84" height="18.84" transform="translate(-159.71 127.83) rotate(-27.29)" fill="#ffc13a" stroke="#333331" stroke-linecap="round" stroke-linejoin="round" stroke-width="2"/><rect id="f30357e0-d4c1-4d0a-b8dc-f5950e4edfeb" data-name="&lt;Rectangle&gt;" x="253.66" y="267.93" width="18.84" height="18.84" transform="translate(-149.8 139.25) rotate(-27.29)" fill="#ffc13a" stroke="#333331" stroke-linecap="round" stroke-linejoin="round" stroke-width="2"/><rect id="9873147d-ca91-43b8-9783-6858de7119d8" data-name="&lt;Rectangle&gt;" x="282.13" y="253.24" width="18.84" height="18.84" transform="translate(-139.9 150.66) rotate(-27.29)" fill="#ffc13a" stroke="#333331" stroke-linecap="round" stroke-linejoin="round" stroke-width="2"/><rect id="0c5f05d3-04f2-4c25-81e4-eac2437a6e85" data-name="&lt;Rectangle&gt;" x="367.51" y="209.18" width="18.84" height="18.84" transform="translate(-110.19 184.91) rotate(-27.29)" fill="#ffc13a" stroke="#333331" stroke-linecap="round" stroke-linejoin="round" stroke-width="2"/><rect id="7a9c402c-c03e-46d9-be2a-f54e7466581f" data-name="&lt;Rectangle&gt;" x="395.97" y="194.5" width="18.84" height="18.84" transform="translate(-100.29 196.33) rotate(-27.29)" fill="#ffc13a" stroke="#333331" stroke-linecap="round" stroke-linejoin="round" stroke-width="2"/><polygon id="3bf7c6d8-9621-43b4-b8f5-ee5b631190c8" data-name="&lt;Path&gt;" points="369.25 172.91 377.89 189.65 391.14 215.32 407.88 206.69 394.63 181.01 385.99 164.27 369.25 172.91" fill="#ffc13a" stroke="#333331" stroke-linecap="round" stroke-linejoin="round" stroke-width="2"/><rect id="f270bdc8-5ab0-4d6f-8447-10fc7ec98e6d" data-name="&lt;Rectangle&gt;" x="155.03" y="286.32" width="18.84" height="18.84" transform="translate(-169.22 96.07) rotate(-27.29)" fill="#ffc13a" stroke="#333331" stroke-linecap="round" stroke-linejoin="round" stroke-width="2"/><rect id="67cccdb8-b058-4919-9cb1-9b08cc70448f" data-name="&lt;Rectangle&gt;" x="183.49" y="271.63" width="18.84" height="18.84" transform="translate(-159.31 107.48) rotate(-27.29)" fill="#ffc13a" stroke="#333331" stroke-linecap="round" stroke-linejoin="round" stroke-width="2"/><rect id="3b725f24-429f-451e-b3a8-90d3774a2656" data-name="&lt;Rectangle&gt;" x="211.95" y="256.94" width="18.84" height="18.84" transform="translate(-149.41 118.9) rotate(-27.29)" fill="#ffc13a" stroke="#333331" stroke-linecap="round" stroke-linejoin="round" stroke-width="2"/><rect id="f6338b9c-8428-4951-93e1-f299601df183" data-name="&lt;Rectangle&gt;" x="240.42" y="242.26" width="18.84" height="18.84" transform="translate(-139.51 130.31) rotate(-27.29)" fill="#ffc13a" stroke="#333331" stroke-linecap="round" stroke-linejoin="round" stroke-width="2"/><rect id="e565170b-c121-43fd-b3df-9c4c651854d1" data-name="&lt;Rectangle&gt;" x="268.88" y="227.57" width="18.84" height="18.84" transform="translate(-129.6 141.73) rotate(-27.29)" fill="#ffc13a" stroke="#333331" stroke-linecap="round" stroke-linejoin="round" stroke-width="2"/><rect id="89f9f154-5e01-45e5-b2bd-d36a75d3386f" data-name="&lt;Rectangle&gt;" x="297.34" y="212.89" width="18.84" height="18.84" transform="translate(-119.7 153.15) rotate(-27.29)" fill="#ffc13a" stroke="#333331" stroke-linecap="round" stroke-linejoin="round" stroke-width="2"/><polygon id="e0b35287-5a10-408f-af4a-cd33c79ddfaa" data-name="&lt;Path&gt;" points="270.62 191.3 283.86 216.97 272.14 223.02 255.4 231.66 264.04 248.4 280.78 239.76 292.5 233.71 309.25 225.07 300.61 208.33 287.36 182.66 270.62 191.3" fill="#ffc13a" stroke="#333331" stroke-linecap="round" stroke-linejoin="round" stroke-width="2"/><rect id="292e3b1e-89b9-48b2-a64b-1ea165e8f9fb" data-name="&lt;Rectangle&gt;" x="354.26" y="183.51" width="18.84" height="18.84" transform="translate(-99.89 175.98) rotate(-27.29)" fill="#ffc13a" stroke="#333331" stroke-linecap="round" stroke-linejoin="round" stroke-width="2"/><rect id="5b88bf97-10d2-4b60-9c73-edb1e6fbb678" data-name="&lt;Rectangle&gt;" x="382.73" y="168.83" width="18.84" height="18.84" transform="translate(-89.99 187.4) rotate(-27.29)" fill="#ffc13a" stroke="#333331" stroke-linecap="round" stroke-linejoin="round" stroke-width="2"/><rect id="d1cb4cfe-bade-4289-8027-35240268cd9b" data-name="&lt;Rectangle&gt;" x="411.19" y="154.14" width="18.84" height="18.84" transform="translate(-80.09 198.81) rotate(-27.29)" fill="#ffc13a" stroke="#333331" stroke-linecap="round" stroke-linejoin="round" stroke-width="2"/><polygon id="9a1948b3-70a8-4a34-9b3e-07e4bd942276" data-name="&lt;Path&gt;" points="115.06 239.06 86.6 253.75 95.24 270.49 123.7 255.8 140.44 247.16 131.8 230.42 115.06 239.06" fill="#ffc13a" stroke="#333331" stroke-linecap="round" stroke-linejoin="round" stroke-width="2"/><rect id="901969bd-8944-4be9-aa19-6fb01862ca87" data-name="&lt;Rectangle&gt;" x="198.71" y="231.27" width="18.84" height="18.84" transform="translate(-139.11 109.97) rotate(-27.29)" fill="#ffc13a" stroke="#333331" stroke-linecap="round" stroke-linejoin="round" stroke-width="2"/><rect id="c054f220-9fce-46a1-bc68-a8473a5db084" data-name="&lt;Rectangle&gt;" x="227.17" y="216.59" width="18.84" height="18.84" transform="translate(-129.21 121.38) rotate(-27.29)" fill="#ffc13a" stroke="#333331" stroke-linecap="round" stroke-linejoin="round" stroke-width="2"/><rect id="8f151808-4274-439a-b873-9b3aabddeb04" data-name="&lt;Rectangle&gt;" x="255.63" y="201.9" width="18.84" height="18.84" transform="translate(-119.31 132.8) rotate(-27.29)" fill="#ffc13a" stroke="#333331" stroke-linecap="round" stroke-linejoin="round" stroke-width="2"/><rect id="2ac3bd4b-a549-4455-971e-fa7fac2d724b" data-name="&lt;Rectangle&gt;" x="284.09" y="187.21" width="18.84" height="18.84" transform="translate(-109.4 144.21) rotate(-27.29)" fill="#ffc13a" stroke="#333331" stroke-linecap="round" stroke-linejoin="round" stroke-width="2"/><rect id="9d43aa7f-acea-4f0f-8021-244b6982af77" data-name="&lt;Rectangle&gt;" x="312.56" y="172.53" width="18.84" height="18.84" transform="translate(-99.5 155.63) rotate(-27.29)" fill="#ffc13a" stroke="#333331" stroke-linecap="round" stroke-linejoin="round" stroke-width="2"/><rect id="32e28b7c-31ba-4f37-8dd5-bce243ed1240" data-name="&lt;Rectangle&gt;" x="341.02" y="157.84" width="18.84" height="18.84" transform="translate(-89.6 167.05) rotate(-27.29)" fill="#ffc13a" stroke="#333331" stroke-linecap="round" stroke-linejoin="round" stroke-width="2"/><rect id="aaeacb08-6747-441b-9610-8f61f5874c19" data-name="&lt;Rectangle&gt;" x="369.48" y="143.15" width="18.84" height="18.84" transform="translate(-79.69 178.46) rotate(-27.29)" fill="#ffc13a" stroke="#333331" stroke-linecap="round" stroke-linejoin="round" stroke-width="2"/><rect id="ce333bd4-ea4b-4094-9293-15222b8fd298" data-name="&lt;Rectangle&gt;" x="397.94" y="128.47" width="18.84" height="18.84" transform="translate(-69.79 189.88) rotate(-27.29)" fill="#ffc13a" stroke="#333331" stroke-linecap="round" stroke-linejoin="round" stroke-width="2"/><rect id="596f798b-2f7e-4157-bdb2-e6f945895ce1" data-name="&lt;Rectangle&gt;" x="128.54" y="234.97" width="18.84" height="18.84" transform="translate(-148.62 78.2) rotate(-27.29)" fill="#ffc13a" stroke="#333331" stroke-linecap="round" stroke-linejoin="round" stroke-width="2"/><rect id="f0e633de-741f-414b-9af6-efe1f677dedf" data-name="&lt;Rectangle&gt;" x="157" y="220.29" width="18.84" height="18.84" transform="translate(-138.72 89.62) rotate(-27.29)" fill="#ffc13a" stroke="#333331" stroke-linecap="round" stroke-linejoin="round" stroke-width="2"/><rect id="440b5184-01ab-494d-b4eb-ab3ef8b480e4" data-name="&lt;Rectangle&gt;" x="185.46" y="205.6" width="18.84" height="18.84" transform="translate(-128.82 101.03) rotate(-27.29)" fill="#ffc13a" stroke="#333331" stroke-linecap="round" stroke-linejoin="round" stroke-width="2"/><rect id="a2adb6b3-04e0-42bc-bd23-60ace4c47624" data-name="&lt;Rectangle&gt;" x="213.92" y="190.91" width="18.84" height="18.84" transform="translate(-118.91 112.45) rotate(-27.29)" fill="#ffc13a" stroke="#333331" stroke-linecap="round" stroke-linejoin="round" stroke-width="2"/><rect id="87cea3f0-dad4-4455-b541-4d10c5bfbdd4" data-name="&lt;Rectangle&gt;" x="242.39" y="176.23" width="18.84" height="18.84" transform="translate(-109.01 123.87) rotate(-27.29)" fill="#ffc13a" stroke="#333331" stroke-linecap="round" stroke-linejoin="round" stroke-width="2"/><rect id="4f050b22-2fcd-4784-8b63-3249f0f69f77" data-name="&lt;Rectangle&gt;" x="270.85" y="161.54" width="18.84" height="18.84" transform="translate(-99.11 135.28) rotate(-27.29)" fill="#ffc13a" stroke="#333331" stroke-linecap="round" stroke-linejoin="round" stroke-width="2"/><rect id="4dfc6d5c-b476-4384-b549-cf7defa7af94" data-name="&lt;Rectangle&gt;" x="299.31" y="146.86" width="18.84" height="18.84" transform="translate(-89.2 146.7) rotate(-27.29)" fill="#ffc13a" stroke="#333331" stroke-linecap="round" stroke-linejoin="round" stroke-width="2"/><rect id="99527069-914a-4c8d-ac31-3db0dbbfb216" data-name="&lt;Rectangle&gt;" x="327.77" y="132.17" width="18.84" height="18.84" transform="translate(-79.3 158.11) rotate(-27.29)" fill="#ffc13a" stroke="#333331" stroke-linecap="round" stroke-linejoin="round" stroke-width="2"/><rect id="4dfbe919-af55-4b8a-b73e-99901edb0fbb" data-name="&lt;Rectangle&gt;" x="356.23" y="117.48" width="18.84" height="18.84" transform="translate(-69.4 169.53) rotate(-27.29)" fill="#ffc13a" stroke="#333331" stroke-linecap="round" stroke-linejoin="round" stroke-width="2"/><rect id="5a43428d-e8a3-42c5-b9fd-82f7e42eec68" data-name="&lt;Rectangle&gt;" x="384.7" y="102.8" width="18.84" height="18.84" transform="translate(-59.49 180.95) rotate(-27.29)" fill="#ffc13a" stroke="#333331" stroke-linecap="round" stroke-linejoin="round" stroke-width="2"/></g><g id="d4b51a1b-4668-4bd2-8750-e36937e65a5a" data-name="&lt;Group&gt;"><rect id="8fa9735c-ff32-47b8-a8c7-55534e33501e" data-name="&lt;Rectangle&gt;" x="438.7" y="404.55" width="23.14" height="129.2" transform="translate(-249.81 509.03) rotate(-50.78)" fill="#ffc13a" stroke="#333331" stroke-linecap="round" stroke-linejoin="round" stroke-width="2"/><path id="f9a438bf-a294-4c8a-82bb-1a56e051d850" data-name="&lt;Rectangle&gt;" d="M387.28,406.83h5.5a4.28,4.28,0,0,1,4.28,4.28v22a0,0,0,0,1,0,0H383a0,0,0,0,1,0,0v-22A4.28,4.28,0,0,1,387.28,406.83Z" transform="translate(-233.87 444.29) rotate(-50.78)" fill="#ffc13a" stroke="#333331" stroke-linecap="round" stroke-linejoin="round" stroke-width="2"/><path id="0d66c12f-2ddc-450d-9949-e111252a13ef" data-name="&lt;Path&gt;" d="M493,519l17.48,4.67a4.54,4.54,0,0,0,5.23-6.41L507.63,501Z" transform="translate(-51.91 -12.27)" fill="#ffc13a" stroke="#333331" stroke-linecap="round" stroke-linejoin="round" stroke-width="2"/><rect id="88adbab1-4fc7-4784-98c6-6661d356a697" data-name="&lt;Rectangle&gt;" x="476.82" y="484.87" width="23.14" height="30.78" transform="translate(-259.9 550) rotate(-50.78)" fill="#fff" stroke="#333331" stroke-linecap="round" stroke-linejoin="round" stroke-width="2"/><polyline id="d9aa2f07-b12a-40de-a3d5-917fc6550dad" data-name="&lt;Path&gt;" points="350.4 432.68 372.35 405.79 416.24 441.61" fill="none" stroke="#333331" stroke-linecap="round" stroke-linejoin="round" stroke-width="2"/></g><g id="e84e84f1-0b78-4e9e-a727-c2689f10110f" data-name="&lt;Group&gt;"><rect id="ef3c4d51-aba9-4a57-ab36-49a1ff7a9117" data-name="&lt;Rectangle&gt;" x="329.78" y="721.96" width="174.96" height="211.47" transform="translate(-198.69 79.87) rotate(-10.73)" fill="#fff" stroke="#333331" stroke-linecap="round" stroke-linejoin="round" stroke-width="2"/><rect id="fea2446b-6443-40be-a789-c90f5ffeb021" data-name="&lt;Rectangle&gt;" x="317.16" y="713.72" width="174.96" height="232.73" transform="translate(-199.36 77.56) rotate(-10.73)" fill="#fff" stroke="#333331" stroke-linecap="round" stroke-linejoin="round" stroke-width="2"/><rect id="0f980dd9-bd7e-4638-ad15-a42ee94530b1" data-name="&lt;Path&gt;" x="320.08" y="718.14" width="151.64" height="227.2" transform="translate(-199.82 75.96) rotate(-10.73)" fill="#ffc13a"/><rect id="78f04291-49aa-4477-adfa-76e033bdee6e" data-name="&lt;Rectangle&gt;" x="399.86" y="796.84" width="90.21" height="40.14" transform="translate(-196.2 84.84) rotate(-10.73)" fill="#fff" stroke="#333331" stroke-linecap="round" stroke-linejoin="round" stroke-width="2"/><polygon id="42278875-4990-4eaf-95a9-3d29bf7a6c78" data-name="&lt;Path&gt;" points="407.18 721 391.46 717.11 378.24 726.49 371.34 690.03 400.28 684.55 407.18 721" fill="#fff" stroke="#333331" stroke-linecap="round" stroke-linejoin="round" stroke-width="2"/><rect id="70be9a1e-ad2f-4c06-bcaa-536c95d88652" data-name="&lt;Rectangle&gt;" x="318.48" y="727.78" width="23.89" height="232.73" transform="translate(-203.27 63.99) rotate(-10.73)" fill="#ffc13a" stroke="#333331" stroke-linecap="round" stroke-linejoin="round" stroke-width="2"/></g><g id="e8527f3c-5c1c-4696-9713-36858cca93bf" data-name="&lt;Group&gt;"><polygon id="76281f7b-93b6-421d-af05-ff47724c7877" data-name="&lt;Path&gt;" points="301.19 549.97 287.29 637.09 350.72 647.21 354.5 623.53 378.18 627.31 388.3 563.88 301.19 549.97" fill="#fff" stroke="#333331" stroke-linecap="round" stroke-linejoin="round" stroke-width="2"/><polygon id="ba0d0580-8c5c-4073-99df-feebf1177dab" data-name="&lt;Path&gt;" points="350.72 647.21 378.18 627.31 354.5 623.53 350.72 647.21" fill="#fff" stroke="#333331" stroke-linecap="round" stroke-linejoin="round" stroke-width="2"/><line id="c82b8349-df4e-4600-aa8e-07389edca1ca" data-name="&lt;Path&gt;" x1="298.56" y1="566.45" x2="319.85" y2="569.84" fill="#fff" stroke="#333331" stroke-linecap="round" stroke-linejoin="round" stroke-width="2"/><line id="c485f8c0-16f4-4bbd-a00d-48d31390358e" data-name="&lt;Path&gt;" x1="337.17" y1="572.61" x2="385.67" y2="580.35" fill="#fff" stroke="#333331" stroke-linecap="round" stroke-linejoin="round" stroke-width="2"/></g><g id="31bda51b-1107-447f-974a-1b7163e00066" data-name="&lt;Group&gt;"><circle id="28aedbba-4cf7-41f2-9f93-af236ff5fa33" data-name="&lt;Path&gt;" cx="431.04" cy="1078.91" r="60.39" transform="translate(-686.8 604.42) rotate(-44.78)" fill="#fff" stroke="#333331" stroke-linecap="round" stroke-linejoin="round" stroke-width="2"/><path id="96cd14c7-c9fe-4e86-9a1f-5f827b2f503c" data-name="&lt;Path&gt;" d="M382.38,1136.9l-74.07,87.84a17.12,17.12,0,0,1-13.7,6.07h0a17.12,17.12,0,0,1-16.51-16.64h0a17.12,17.12,0,0,1,6.18-13.65l88.41-73.39Z" transform="translate(-51.91 -12.27)" fill="#ffc13a" stroke="#333331" stroke-linecap="round" stroke-linejoin="round" stroke-width="2"/><path id="550ca7d1-a09b-4ff0-b56d-18473bc4732d" data-name="&lt;Path&gt;" d="M388.18,1121.45a60.67,60.67,0,0,1-7.06-8.58l-11.38,11.29,15.58,15.7,11.38-11.29A60.67,60.67,0,0,1,388.18,1121.45Z" transform="translate(-51.91 -12.27)" fill="#fff" stroke="#333331" stroke-linecap="round" stroke-linejoin="round" stroke-width="2"/><circle id="7c5d28c1-b284-43bc-9049-4ce6092638ff" data-name="&lt;Path&gt;" cx="431.04" cy="1078.91" r="44.67" transform="translate(-686.8 604.42) rotate(-44.78)" fill="#fff" stroke="#333331" stroke-linecap="round" stroke-linejoin="round" stroke-width="2"/><path id="ba4f7b43-0af1-4dce-9cb9-9a85a9f59451" data-name="&lt;Path&gt;" d="M401.82,1065.31a41.12,41.12,0,0,0-11.43,21.34,41.37,41.37,0,0,0,81.24.31,41.37,41.37,0,0,0-69.81-21.65Z" transform="translate(-51.91 -12.27)" fill="#ffc13a"/><line id="11f9e91e-10d9-47bf-9371-88f67809710c" data-name="&lt;Path&gt;" x1="232.37" y1="1188.25" x2="256.4" y2="1212.46" fill="#ffc13a" stroke="#333331" stroke-linecap="round" stroke-linejoin="round" stroke-width="2"/></g></svg>