<svg id="3fa72368-eedb-4f70-99dc-65dd9634875d" data-name="Layer 1" xmlns="http://www.w3.org/2000/svg" width="112.58mm" height="16.88mm" viewBox="0 0 319.14 47.85" preserveAspectRatio="none"><title>marker1b</title><path d="M261.88,321.09c25.64-.88,51.27-1.93,76.92-2.54,43.5-1,87-1.21,130.54-.76q51.35.53,102.67,2.09c3,.09,5.72-19.42,6.12-21.77.29-1.69,3.74-22.49,1.69-22.55-55.63-1.63-111.29-2.56-166.95-2.28q-52.7.26-105.38,2.1c-12.6.44-25.2,1-37.81,1.38-1.27,0-2.72,6.25-2.71,6.21a145.2,145.2,0,0,0-3.41,15.55c-.28,1.63-3.49,22.61-1.69,22.55Z" transform="translate(-261.33 -273.24)" fill="#FDE681"/></svg>
